<svg width="64" height="64" viewBox="0 0 64 64" fill="none" xmlns="http://www.w3.org/2000/svg"><rect width="64" height="64" rx="18" fill="#102A56"/><rect x="8" y="8" width="48" height="48" rx="16" fill="url(#paint0_linear_1_2)"/><path d="M22 40.5V23H31.2C33.2667 23 34.9 23.5167 36.1 24.55C37.3333 25.55 37.95 26.95 37.95 28.75C37.95 30.55 37.3333 31.95 36.1 32.95C34.9 33.95 33.2667 34.45 31.2 34.45H26.45V40.5H22ZM26.45 30.7H30.85C31.9167 30.7 32.7333 30.4667 33.3 30C33.8667 29.5333 34.15 28.8833 34.15 28.05C34.15 27.1833 33.8667 26.5167 33.3 26.05C32.7333 25.5833 31.9167 25.35 30.85 25.35H26.45V30.7Z" fill="white"/><defs><linearGradient id="paint0_linear_1_2" x1="8" y1="8" x2="56" y2="56" gradientUnits="userSpaceOnUse"><stop stop-color="#2F6DFF"/><stop offset="1" stop-color="#F97316"/></linearGradient></defs></svg>
